<svg xmlns="http://www.w3.org/2000/svg" width="77" height="77" viewBox="0 0 77 77"><defs><mask id="y8m2b" width="2" height="2" x="-1" y="-1"><path fill="#fff" d="M7 3h63v63H7z"/><path d="M68.478 31.818l-12.552 11.19 2.579 17.564a4.53 4.53 0 0 1-7.023 4.413l-12.826-8.727-12.825 8.718a4.463 4.463 0 0 1-4.945.092 4.475 4.475 0 0 1-2.078-4.505l2.58-17.558L8.834 31.816a4.535 4.535 0 0 1 2.393-7.88l16.66-2.3 6.593-15.748a4.525 4.525 0 0 1 8.35 0l6.593 15.748 16.66 2.3v.003a4.535 4.535 0 0 1 2.393 7.88zm-2.982-3.34l-17.95-2.583a2.238 2.238 0 0 1-1.76-1.354L38.702 7.616a.1.1 0 0 0-.018-.034l-7.16 16.968a2.238 2.238 0 0 1-1.759 1.354l-17.927 2.473 13.432 12.102c.559.5.83 1.245.723 1.987l-2.756 18.749 14.169-9.516a2.239 2.239 0 0 1 2.516 0l14.086 9.574-2.686-18.798a2.237 2.237 0 0 1 .723-1.996z"/></mask><filter id="y8m2a" width="97.8" height="101.9" x="-10" y="-14" filterUnits="userSpaceOnUse"><feOffset dx=".8" dy="4.9" in="SourceGraphic" result="FeOffset1065Out"/><feGaussianBlur in="FeOffset1065Out" result="FeGaussianBlur1066Out" stdDeviation="2.8 2.8"/></filter></defs><g><g><g filter="url(#y8m2a)"><path fill="none" d="M68.478 31.818l-12.552 11.19 2.579 17.564a4.53 4.53 0 0 1-7.023 4.413l-12.826-8.727-12.825 8.718a4.463 4.463 0 0 1-4.945.092 4.475 4.475 0 0 1-2.078-4.505l2.58-17.558L8.834 31.816a4.535 4.535 0 0 1 2.393-7.88l16.66-2.3 6.593-15.748a4.525 4.525 0 0 1 8.35 0l6.593 15.748 16.66 2.3v.003a4.535 4.535 0 0 1 2.393 7.88zm-2.982-3.34l-17.95-2.583a2.238 2.238 0 0 1-1.76-1.354L38.702 7.616a.1.1 0 0 0-.018-.034l-7.16 16.968a2.238 2.238 0 0 1-1.759 1.354l-17.927 2.473 13.432 12.102c.559.5.83 1.245.723 1.987l-2.756 18.749 14.169-9.516a2.239 2.239 0 0 1 2.516 0l14.086 9.574-2.686-18.798a2.237 2.237 0 0 1 .723-1.996z" mask="url(&quot;#y8m2b&quot;)"/><path fill="#7897a3" fill-opacity=".75" d="M68.478 31.818l-12.552 11.19 2.579 17.564a4.53 4.53 0 0 1-7.023 4.413l-12.826-8.727-12.825 8.718a4.463 4.463 0 0 1-4.945.092 4.475 4.475 0 0 1-2.078-4.505l2.58-17.558L8.834 31.816a4.535 4.535 0 0 1 2.393-7.88l16.66-2.3 6.593-15.748a4.525 4.525 0 0 1 8.35 0l6.593 15.748 16.66 2.3v.003a4.535 4.535 0 0 1 2.393 7.88zm-2.982-3.34l-17.95-2.583a2.238 2.238 0 0 1-1.76-1.354L38.702 7.616a.1.1 0 0 0-.018-.034l-7.16 16.968a2.238 2.238 0 0 1-1.759 1.354l-17.927 2.473 13.432 12.102c.559.5.83 1.245.723 1.987l-2.756 18.749 14.169-9.516a2.239 2.239 0 0 1 2.516 0l14.086 9.574-2.686-18.798a2.237 2.237 0 0 1 .723-1.996z"/></g><path fill="#fff" d="M68.478 31.818l-12.552 11.19 2.579 17.564a4.53 4.53 0 0 1-7.023 4.413l-12.826-8.727-12.825 8.718a4.463 4.463 0 0 1-4.945.092 4.475 4.475 0 0 1-2.078-4.505l2.58-17.558L8.834 31.816a4.535 4.535 0 0 1 2.393-7.88l16.66-2.3 6.593-15.748a4.525 4.525 0 0 1 8.35 0l6.593 15.748 16.66 2.3v.003a4.535 4.535 0 0 1 2.393 7.88zm-2.982-3.34l-17.95-2.583a2.238 2.238 0 0 1-1.76-1.354L38.702 7.616a.1.1 0 0 0-.018-.034l-7.16 16.968a2.238 2.238 0 0 1-1.759 1.354l-17.927 2.473 13.432 12.102c.559.5.83 1.245.723 1.987l-2.756 18.749 14.169-9.516a2.239 2.239 0 0 1 2.516 0l14.086 9.574-2.686-18.798a2.237 2.237 0 0 1 .723-1.996z"/><path fill="#dbe9cd" d="M68.478 31.818l-12.552 11.19 2.579 17.564a4.53 4.53 0 0 1-7.023 4.413l-12.826-8.727-12.825 8.718a4.463 4.463 0 0 1-4.945.092 4.475 4.475 0 0 1-2.078-4.505l2.58-17.558L8.834 31.816a4.535 4.535 0 0 1 2.393-7.88l16.66-2.3 6.593-15.748a4.525 4.525 0 0 1 8.35 0l6.593 15.748 16.66 2.3v.003a4.535 4.535 0 0 1 2.393 7.88zm-2.982-3.34l-17.95-2.583a2.238 2.238 0 0 1-1.76-1.354L38.702 7.616a.1.1 0 0 0-.018-.034l-7.16 16.968a2.238 2.238 0 0 1-1.759 1.354l-17.927 2.473 13.432 12.102c.559.5.83 1.245.723 1.987l-2.756 18.749 14.169-9.516a2.239 2.239 0 0 1 2.516 0l14.086 9.574-2.686-18.798a2.237 2.237 0 0 1 .723-1.996z"/></g></g></svg>