<svg xmlns="http://www.w3.org/2000/svg" width="70" height="77" viewBox="0 0 70 77"><defs><mask id="64gdb" width="2" height="2" x="-1" y="-1"><path fill="#fff" d="M7 3h56v63H7z"/><path d="M62.312 30.497v14.91c0 3.032-2.467 5.499-5.5 5.499H54.98v1.833c0 5.054-4.112 9.166-9.165 9.166h-5.815a5.508 5.508 0 0 1-5.184 3.666 5.506 5.506 0 0 1-5.5-5.5c0-3.032 2.467-5.499 5.5-5.499a5.508 5.508 0 0 1 5.184 3.666h5.815a5.509 5.509 0 0 0 5.262-3.903 5.506 5.506 0 0 1-7.096-5.262v-14.91c0-3.032 2.467-5.5 5.5-5.5a5.508 5.508 0 0 1 5.184 3.667h2.148c.643 0 1.26.112 1.833.315v-2.148c0-13.14-10.69-23.831-23.83-23.831-13.14 0-23.831 10.69-23.831 23.831v2.148a5.47 5.47 0 0 1 1.833-.315h2.148a5.508 5.508 0 0 1 5.184-3.666c3.033 0 5.5 2.467 5.5 5.5v14.909c0 3.032-2.467 5.5-5.5 5.5a5.508 5.508 0 0 1-5.184-3.667h-2.148a5.506 5.506 0 0 1-5.5-5.5V30.497C7.317 15.335 19.653 3 34.815 3s27.497 12.335 27.497 27.497zM18.316 49.073c0 1.01.823 1.833 1.833 1.833 1.011 0 1.834-.823 1.834-1.833v-14.91c0-1.01-.823-1.833-1.834-1.833-1.01 0-1.833.822-1.833 1.833zm-7.332-11.244v7.577c0 1.011.822 1.834 1.833 1.834h1.833V35.996h-1.833c-1.01 0-1.833.823-1.833 1.833zm25.664 22.243c0-1.011-.823-1.834-1.833-1.834-1.011 0-1.833.823-1.833 1.834 0 1.01.822 1.833 1.833 1.833 1.01 0 1.833-.822 1.833-1.833zm14.665-25.909c0-1.01-.822-1.833-1.833-1.833-1.011 0-1.833.822-1.833 1.833v14.91c0 1.01.822 1.833 1.833 1.833 1.01 0 1.833-.823 1.833-1.833zm7.332 3.666c0-1.01-.822-1.833-1.833-1.833H54.98V47.24h1.833c1.011 0 1.834-.823 1.834-1.834z"/></mask><filter id="64gda" width="90.8" height="101.9" x="-10" y="-14" filterUnits="userSpaceOnUse"><feOffset dx=".8" dy="4.9" in="SourceGraphic" result="FeOffset1044Out"/><feGaussianBlur in="FeOffset1044Out" result="FeGaussianBlur1045Out" stdDeviation="2.8 2.8"/></filter></defs><g><g><g filter="url(#64gda)"><path fill="none" d="M62.312 30.497v14.91c0 3.032-2.467 5.499-5.5 5.499H54.98v1.833c0 5.054-4.112 9.166-9.165 9.166h-5.815a5.508 5.508 0 0 1-5.184 3.666 5.506 5.506 0 0 1-5.5-5.5c0-3.032 2.467-5.499 5.5-5.499a5.508 5.508 0 0 1 5.184 3.666h5.815a5.509 5.509 0 0 0 5.262-3.903 5.506 5.506 0 0 1-7.096-5.262v-14.91c0-3.032 2.467-5.5 5.5-5.5a5.508 5.508 0 0 1 5.184 3.667h2.148c.643 0 1.26.112 1.833.315v-2.148c0-13.14-10.69-23.831-23.83-23.831-13.14 0-23.831 10.69-23.831 23.831v2.148a5.47 5.47 0 0 1 1.833-.315h2.148a5.508 5.508 0 0 1 5.184-3.666c3.033 0 5.5 2.467 5.5 5.5v14.909c0 3.032-2.467 5.5-5.5 5.5a5.508 5.508 0 0 1-5.184-3.667h-2.148a5.506 5.506 0 0 1-5.5-5.5V30.497C7.317 15.335 19.653 3 34.815 3s27.497 12.335 27.497 27.497zM18.316 49.073c0 1.01.823 1.833 1.833 1.833 1.011 0 1.834-.823 1.834-1.833v-14.91c0-1.01-.823-1.833-1.834-1.833-1.01 0-1.833.822-1.833 1.833zm-7.332-11.244v7.577c0 1.011.822 1.834 1.833 1.834h1.833V35.996h-1.833c-1.01 0-1.833.823-1.833 1.833zm25.664 22.243c0-1.011-.823-1.834-1.833-1.834-1.011 0-1.833.823-1.833 1.834 0 1.01.822 1.833 1.833 1.833 1.01 0 1.833-.822 1.833-1.833zm14.665-25.909c0-1.01-.822-1.833-1.833-1.833-1.011 0-1.833.822-1.833 1.833v14.91c0 1.01.822 1.833 1.833 1.833 1.01 0 1.833-.823 1.833-1.833zm7.332 3.666c0-1.01-.822-1.833-1.833-1.833H54.98V47.24h1.833c1.011 0 1.834-.823 1.834-1.834z" mask="url(&quot;#64gdb&quot;)"/><path fill="#7897a3" fill-opacity=".75" d="M62.312 30.497v14.91c0 3.032-2.467 5.499-5.5 5.499H54.98v1.833c0 5.054-4.112 9.166-9.165 9.166h-5.815a5.508 5.508 0 0 1-5.184 3.666 5.506 5.506 0 0 1-5.5-5.5c0-3.032 2.467-5.499 5.5-5.499a5.508 5.508 0 0 1 5.184 3.666h5.815a5.509 5.509 0 0 0 5.262-3.903 5.506 5.506 0 0 1-7.096-5.262v-14.91c0-3.032 2.467-5.5 5.5-5.5a5.508 5.508 0 0 1 5.184 3.667h2.148c.643 0 1.26.112 1.833.315v-2.148c0-13.14-10.69-23.831-23.83-23.831-13.14 0-23.831 10.69-23.831 23.831v2.148a5.47 5.47 0 0 1 1.833-.315h2.148a5.508 5.508 0 0 1 5.184-3.666c3.033 0 5.5 2.467 5.5 5.5v14.909c0 3.032-2.467 5.5-5.5 5.5a5.508 5.508 0 0 1-5.184-3.667h-2.148a5.506 5.506 0 0 1-5.5-5.5V30.497C7.317 15.335 19.653 3 34.815 3s27.497 12.335 27.497 27.497zM18.316 49.073c0 1.01.823 1.833 1.833 1.833 1.011 0 1.834-.823 1.834-1.833v-14.91c0-1.01-.823-1.833-1.834-1.833-1.01 0-1.833.822-1.833 1.833zm-7.332-11.244v7.577c0 1.011.822 1.834 1.833 1.834h1.833V35.996h-1.833c-1.01 0-1.833.823-1.833 1.833zm25.664 22.243c0-1.011-.823-1.834-1.833-1.834-1.011 0-1.833.823-1.833 1.834 0 1.01.822 1.833 1.833 1.833 1.01 0 1.833-.822 1.833-1.833zm14.665-25.909c0-1.01-.822-1.833-1.833-1.833-1.011 0-1.833.822-1.833 1.833v14.91c0 1.01.822 1.833 1.833 1.833 1.01 0 1.833-.823 1.833-1.833zm7.332 3.666c0-1.01-.822-1.833-1.833-1.833H54.98V47.24h1.833c1.011 0 1.834-.823 1.834-1.834z"/></g><path fill="#fff" d="M62.312 30.497v14.91c0 3.032-2.467 5.499-5.5 5.499H54.98v1.833c0 5.054-4.112 9.166-9.165 9.166h-5.815a5.508 5.508 0 0 1-5.184 3.666 5.506 5.506 0 0 1-5.5-5.5c0-3.032 2.467-5.499 5.5-5.499a5.508 5.508 0 0 1 5.184 3.666h5.815a5.509 5.509 0 0 0 5.262-3.903 5.506 5.506 0 0 1-7.096-5.262v-14.91c0-3.032 2.467-5.5 5.5-5.5a5.508 5.508 0 0 1 5.184 3.667h2.148c.643 0 1.26.112 1.833.315v-2.148c0-13.14-10.69-23.831-23.83-23.831-13.14 0-23.831 10.69-23.831 23.831v2.148a5.47 5.47 0 0 1 1.833-.315h2.148a5.508 5.508 0 0 1 5.184-3.666c3.033 0 5.5 2.467 5.5 5.5v14.909c0 3.032-2.467 5.5-5.5 5.5a5.508 5.508 0 0 1-5.184-3.667h-2.148a5.506 5.506 0 0 1-5.5-5.5V30.497C7.317 15.335 19.653 3 34.815 3s27.497 12.335 27.497 27.497zM18.316 49.073c0 1.01.823 1.833 1.833 1.833 1.011 0 1.834-.823 1.834-1.833v-14.91c0-1.01-.823-1.833-1.834-1.833-1.01 0-1.833.822-1.833 1.833zm-7.332-11.244v7.577c0 1.011.822 1.834 1.833 1.834h1.833V35.996h-1.833c-1.01 0-1.833.823-1.833 1.833zm25.664 22.243c0-1.011-.823-1.834-1.833-1.834-1.011 0-1.833.823-1.833 1.834 0 1.01.822 1.833 1.833 1.833 1.01 0 1.833-.822 1.833-1.833zm14.665-25.909c0-1.01-.822-1.833-1.833-1.833-1.011 0-1.833.822-1.833 1.833v14.91c0 1.01.822 1.833 1.833 1.833 1.01 0 1.833-.823 1.833-1.833zm7.332 3.666c0-1.01-.822-1.833-1.833-1.833H54.98V47.24h1.833c1.011 0 1.834-.823 1.834-1.834z"/><path fill="#dbe9cd" d="M62.312 30.497v14.91c0 3.032-2.467 5.499-5.5 5.499H54.98v1.833c0 5.054-4.112 9.166-9.165 9.166h-5.815a5.508 5.508 0 0 1-5.184 3.666 5.506 5.506 0 0 1-5.5-5.5c0-3.032 2.467-5.499 5.5-5.499a5.508 5.508 0 0 1 5.184 3.666h5.815a5.509 5.509 0 0 0 5.262-3.903 5.506 5.506 0 0 1-7.096-5.262v-14.91c0-3.032 2.467-5.5 5.5-5.5a5.508 5.508 0 0 1 5.184 3.667h2.148c.643 0 1.26.112 1.833.315v-2.148c0-13.14-10.69-23.831-23.83-23.831-13.14 0-23.831 10.69-23.831 23.831v2.148a5.47 5.47 0 0 1 1.833-.315h2.148a5.508 5.508 0 0 1 5.184-3.666c3.033 0 5.5 2.467 5.5 5.5v14.909c0 3.032-2.467 5.5-5.5 5.5a5.508 5.508 0 0 1-5.184-3.667h-2.148a5.506 5.506 0 0 1-5.5-5.5V30.497C7.317 15.335 19.653 3 34.815 3s27.497 12.335 27.497 27.497zM18.316 49.073c0 1.01.823 1.833 1.833 1.833 1.011 0 1.834-.823 1.834-1.833v-14.91c0-1.01-.823-1.833-1.834-1.833-1.01 0-1.833.822-1.833 1.833zm-7.332-11.244v7.577c0 1.011.822 1.834 1.833 1.834h1.833V35.996h-1.833c-1.01 0-1.833.823-1.833 1.833zm25.664 22.243c0-1.011-.823-1.834-1.833-1.834-1.011 0-1.833.823-1.833 1.834 0 1.01.822 1.833 1.833 1.833 1.01 0 1.833-.822 1.833-1.833zm14.665-25.909c0-1.01-.822-1.833-1.833-1.833-1.011 0-1.833.822-1.833 1.833v14.91c0 1.01.822 1.833 1.833 1.833 1.01 0 1.833-.823 1.833-1.833zm7.332 3.666c0-1.01-.822-1.833-1.833-1.833H54.98V47.24h1.833c1.011 0 1.834-.823 1.834-1.834z"/></g></g></svg>